<svg id="Layer_1" data-name="Layer 1" xmlns="http://www.w3.org/2000/svg" viewBox="0 0 1007.68 177.13">
  <g>
    <path d="M77,324.27H8.12V322.8H27.48V159.14H8.12v-1.47H127.93l4.65,45.08h-1.71l-24-43.61H55.16v83.3H85.79l12.49-26.21H100l.49,54.39H98.77l-13-26.71H55.16V322.8H77Z" transform="translate(-8.13 -152.77)"/>
    <path d="M163,159.14H143.61v-1.47h68.84v1.47h-21.8V322.8h52.67l24-43.61h1.72l-4.66,45.08H143.61V322.8H163Z" transform="translate(-8.13 -152.77)"/>
    <path d="M383.46,159.14h-7.1v-1.47h48v1.47h-4.66L402.57,170.9V288.26c0,18.86-16.66,41.65-50.71,41.65-35.28,0-58.31-19.6-58.31-39V159.14H274.2v-1.47h66.39v1.47H321.23V314.72c0,8.33,9.8,13.72,30.63,13.72,32.83,0,48.75-22.05,48.75-40.18V170.9Z" transform="translate(-8.13 -152.77)"/>
    <path d="M555.7,302.47c-6.37,11.76-25.24,26.7-50.23,26.7-44.34,0-74.47-43.61-74.47-88.2s31.11-88.2,72-88.2a61.25,61.25,0,0,1,35.53,11l16.9-6.13h1.47l1,45.33h-1.71l-19.11-38.22A59.83,59.83,0,0,0,503,154.24c-23.76,0-41.16,16.42-41.16,22.3V305.9c0,5.63,17.15,21.8,43.61,21.8,22.54,0,41.16-12.25,49-26Z" transform="translate(-8.13 -152.77)"/>
    <path d="M655.41,159.14V322.8H676v1.47H607.15V322.8h20.58V159.14H600l-24,41.65h-1.71l3.43-43.12H705.39l3.43,43.12h-1.71l-24-41.65Z" transform="translate(-8.13 -152.77)"/>
    <path d="M825,159.14h-7.1v-1.47h48v1.47h-4.66L844.06,170.9V288.26c0,18.86-16.66,41.65-50.71,41.65-35.28,0-58.31-19.6-58.31-39V159.14H715.69v-1.47h66.39v1.47H762.72V314.72c0,8.33,9.8,13.72,30.63,13.72,32.83,0,48.75-22.05,48.75-40.18V170.9Z" transform="translate(-8.13 -152.77)"/>
    <path d="M872.48,322.8h19.36V159.14H872.48v-1.47h80.36c25.48,0,47.29,17.4,47.29,38.71,0,28.18-28.91,39-49.25,40.18v.74C970,242.2,984.2,253,989.1,264.25c3.68,8.57,5.39,28.66,8.33,58.55h18.38v1.47H970.24C968,301.73,959.46,253,953.58,241.46c-2.21-2.69-9.07-4.65-19.11-4.65h-15v86h19.36v1.47h-66.4Zm74.73-87.46c10.29,0,23.27-3.92,23.27-7.35V165.76c0-3.43-7.59-6.62-17.64-6.62H919.52v76.2Z" transform="translate(-8.13 -152.77)"/>
  </g>
</svg>
